PathFileType	4	(X/Y/Z)	2014001\dynamic\2014001_C1_01.trc
DataRate	CameraRate	NumFrames	NumMarkers	Units	OrigDataRate	OrigDataStartFrame	OrigNumFrames
100.000000	100.000000	4	52	mm	100.000000	48	387
Frame#	Time	L_IAS			L_IPS			R_IPS			R_IAS			L_FTC			L_FLE			L_FME			L_FAX			L_TTC			L_FAL			L_TAM			L_FCC			L_FM1			L_FM2			L_FM5			R_FTC			R_FLE			R_FME			R_FAX			R_TTC			R_FAL			R_TAM			R_FCC			R_FM1			R_FM2			R_FM5			CV7			TV10			SXS			SJN			L_SIA			L_SRS			L_SAA			L_SAE			L_HLE			L_HME			L_UOA			L_RSP			L_UHE			L_HM2			L_HM5			R_SIA			R_SRS			R_SAA			R_SAE			R_HLE			R_HME			R_UOA			R_RSP			R_UHE			R_HM2			R_HM5			
		X1	Y1	Z1	X2	Y2	Z2	X3	Y3	Z3	X4	Y4	Z4	X5	Y5	Z5	X6	Y6	Z6	X7	Y7	Z7	X8	Y8	Z8	X9	Y9	Z9	X10	Y10	Z10	X11	Y11	Z11	X12	Y12	Z12	X13	Y13	Z13	X14	Y14	Z14	X15	Y15	Z15	X16	Y16	Z16	X17	Y17	Z17	X18	Y18	Z18	X19	Y19	Z19	X20	Y20	Z20	X21	Y21	Z21	X22	Y22	Z22	X23	Y23	Z23	X24	Y24	Z24	X25	Y25	Z25	X26	Y26	Z26	X27	Y27	Z27	X28	Y28	Z28	X29	Y29	Z29	X30	Y30	Z30	X31	Y31	Z31	X32	Y32	Z32	X33	Y33	Z33	X34	Y34	Z34	X35	Y35	Z35	X36	Y36	Z36	X37	Y37	Z37	X38	Y38	Z38	X39	Y39	Z39	X40	Y40	Z40	X41	Y41	Z41	X42	Y42	Z42	X43	Y43	Z43	X44	Y44	Z44	X45	Y45	Z45	X46	Y46	Z46	X47	Y47	Z47	X48	Y48	Z48	X49	Y49	Z49	X50	Y50	Z50	X51	Y51	Z51	X52	Y52	Z52	

49	0.48	157.2295837402344	879.9779663085942	820.427612304688	220.2528228759767	925.161010742188	1001.479125976563	309.6275939941407	922.837768554688	1009.539367675782	396.7640380859377	886.3689575195317	841.216674804688	99.93874359130865	796.997192382813	896.7599487304692	147.1883850097657	440.9483337402346	882.8309936523442	259.3985595703126	435.5323791503909	860.7903442382817	148.1487274169922	377.348602294922	899.560913085938	192.3764038085939	365.7638549804689	832.9950561523442	210.2095336914064	61.62132644653323	884.4311523437505	293.6824645996095	78.50872802734378	855.486450195313	262.8274841308595	21.82601928710938	920.9701538085942	269.1990356445314	28.88932037353517	740.7670898437502	207.8584136962892	39.10010147094728	737.820251464844	168.2911529541016	24.79932975769044	793.7232055664067	450.4116516113284	795.471801757813	942.7899780273442	457.5365905761721	449.5314941406252	932.8230590820317	342.5333251953126	417.9418029785159	896.112426757813	462.1523742675784	405.7974243164065	977.4497070312505	423.6065673828127	357.6777648925782	923.3625488281255	408.2495422363284	186.5448150634766	1198.818115234375	332.6595764160157	168.2529449462891	1147.3115234375	343.203826904297	180.9760284423829	1247.219482421875	355.8990783691407	54.0299987792969	1117.731811523438	413.6054992675784	60.51753616333011	1120.500366210938	445.4071960449221	82.59194946289065	1173.457275390625	248.5747680664064	1388.546752929688	967.9797973632817	253.3953399658204	1155.484375	1030.754760742188	253.7393798828126	1158.750732421875	798.9697875976567	248.2764587402345	1322.2109375	840.7932128906255	157.2425689697266	1190.017944335938	1030.7451171875	161.2392883300782	1320.374633789063	1010.853149414063	53.5817680358887	1317.128173828125	936.2008666992192	68.95488739013675	1328.867065429688	896.0712890625005	-5.118409633636476	1042.966430664063	930.6307983398442	71.34698486328128	1009.13916015625	951.1641235351567	21.74953651428223	1004.889343261719	959.6317749023442	40.04032135009767	832.7435913085942	797.860961914063	-23.35708808898926	817.8211059570317	845.7612915039067	32.02593994140626	761.4471435546877	749.5832519531252	-23.84212875366212	740.641784667969	833.665161132813	367.4747009277345	1201.691528320313	1037.061645507813	338.8090209960939	1326.420654296875	1010.738525390625	441.516052246094	1327.472045898438	934.0681762695317	429.2102966308596	1329.843139648438	884.355102539063	517.066833496094	1031.559814453125	933.5403442382817	443.0304260253909	1012.027648925782	961.561401367188	489.3121032714846	1003.40478515625	964.1699829101567	481.0437316894534	844.4128417968755	800.7954711914067	544.856628417969	830.5720214843755	851.4909667968755	496.414733886719	764.204040527344	753.3706054687502	543.8836669921877	750.9880981445315	842.2799682617192	
50	0.49	155.4837341308594	879.9155273437505	817.385620117188	218.8549804687501	925.1549682617192	998.261596679688	308.2974548339845	923.0704956054692	1006.099792480469	395.0403747558596	887.084838867188	837.3945312500005	98.7166366577149	796.754760742188	893.8563842773442	146.6454467773438	440.8633117675784	880.895629882813	258.8938903808595	435.6111145019534	858.7842407226567	147.7232513427735	377.2802124023439	897.854858398438	191.9808807373047	365.5160217285157	831.3383789062505	210.2951049804689	61.64116668701175	884.2617187500005	293.8126525878907	78.48914337158206	855.3273925781255	262.8728637695314	21.90518760681153	920.9291381835942	269.3114318847657	28.55855941772462	740.7044067382815	207.8681945800782	38.98239135742189	737.673034667969	168.2548217773438	24.77995681762697	793.7265625000005	449.311462402344	796.0562133789067	938.6101684570317	456.977966308594	450.042907714844	925.5001831054692	341.8254699707032	418.5017395019534	888.9743652343755	461.6295471191409	406.3472290039065	969.9729614257817	423.169128417969	358.2502441406251	915.8225708007817	408.2839965820315	187.0458679199219	1191.184204101563	332.7786254882814	168.4925994873047	1139.707885742188	343.3197631835939	180.9519042968751	1239.729858398438	357.1202392578126	54.64192199707034	1109.366577148438	414.7192993164065	61.77107238769534	1112.159301757813	446.2653503417971	83.87537384033206	1165.27880859375	246.9392547607423	1388.822875976563	964.7126464843755	251.7210083007814	1155.72265625	1027.523071289063	252.0857238769532	1158.99462890625	795.7738647460942	246.6888732910157	1322.459228515625	837.5462036132817	155.4453582763672	1190.32470703125	1027.449584960938	159.5474395751954	1320.658935546875	1007.579467773438	51.91545867919925	1317.492431640625	932.8370971679692	67.36124420166018	1329.246459960938	892.7326049804692	-6.842908859252933	1043.269287109375	926.5728149414067	69.60359191894534	1009.302368164063	946.8437500000005	20.0266513824463	1005.029602050782	955.4072875976567	38.33877182006837	833.7335815429692	792.6680297851567	-24.97117614746095	818.5563964843755	840.559448242188	30.23468017578126	762.7488403320315	743.9764404296877	-25.47559547424318	741.4370727539065	828.0317382812505	365.7420349121095	1201.877685546875	1033.888793945313	337.1085815429689	1326.634521484375	1007.59228515625	439.8852539062502	1327.708129882813	930.8529663085942	427.5826110839846	1330.09619140625	881.2973632812505	515.8386840820315	1031.859375	930.2509155273442	441.8481140136721	1012.201293945313	958.3278198242192	488.1460571289065	1003.437072753907	960.7885131835942	479.298034667969	846.1013793945317	795.7891235351567	543.1975097656252	831.6198120117192	846.1842651367192	494.3963317871096	766.3409423828127	747.486755371094	542.028259277344	752.113464355469	836.1547851562505	
51	0.5	153.7827301025391	879.8363647460942	814.3738403320317	217.4822692871095	925.1283569335942	995.0832519531255	306.9848022460939	923.2661743164067	1002.71337890625	393.3602294921877	887.7689819335942	833.6213989257817	97.52781677246099	796.5354614257817	890.8505249023442	146.1052551269532	440.7779846191409	879.0608520507817	258.3923339843751	435.7017211914065	856.825805664063	147.3063964843751	377.2025451660157	896.2580566406255	191.5722351074219	365.2635803222657	829.7625122070317	210.3747863769532	61.66096878051761	884.1148071289067	293.9419250488282	78.49353027343753	855.174194335938	262.917449951172	21.98085021972657	920.8965454101567	269.410369873047	28.27891159057619	740.6436157226565	207.8646545410157	38.87085723876955	737.5354614257815	168.2109527587891	24.75540351867677	793.7330932617192	448.2280883789065	796.624389648438	934.486450195313	456.4389953613284	450.5523681640627	918.2841186523442	341.1355285644532	419.0658264160159	881.9960327148442	461.1222839355471	406.8468017578127	962.584838867188	422.7489013671877	358.837371826172	908.3390502929692	408.4711914062502	187.1291656494141	1183.341674804688	333.0305175781251	168.4056549072266	1131.894287109375	343.6336975097657	180.4230957031251	1232.052001953125	358.2863159179689	55.02886581420901	1100.620849609375	415.7831115722659	62.75552749633792	1103.397094726563	447.1683349609377	84.72110748291018	1156.659423828125	245.3589630126954	1389.073852539063	961.4967651367192	250.0846099853517	1155.936401367188	1024.34521484375	250.4503021240236	1159.209350585938	792.630493164063	245.1355590820314	1322.681030273438	834.353637695313	153.6983795166016	1190.610961914063	1024.218505859375	157.9088134765626	1320.925537109375	1004.364624023438	50.29050064086917	1317.84130859375	929.544555664063	65.80317687988284	1329.60791015625	889.4660034179692	-8.535628318786625	1043.560424804688	922.6679687500005	67.88818359375003	1009.475158691407	942.7265014648442	18.32731628417969	1005.173706054688	951.3566894531255	36.73799896240236	834.6787719726567	787.7058715820317	-26.51014518737794	819.2418823242192	835.5832519531255	28.57356834411623	763.9965820312502	738.6284790039065	-27.00277519226076	742.1934204101565	822.6398925781255	364.0550231933595	1202.044677734375	1030.756713867188	335.4660644531251	1326.81884765625	1004.476928710938	438.3024902343752	1327.895874023438	927.6437988281255	425.9912414550784	1330.29541015625	878.253295898438	514.6704101562502	1032.126831054688	927.0520629882817	440.7026672363284	1012.324096679688	955.1510620117192	487.0276794433596	1003.443603515625	957.4807128906255	477.5654296875002	847.7041015625005	790.9515991210942	541.561706542969	832.611206054688	841.027954101563	492.3865356445315	768.3886718750005	741.809997558594	540.203063964844	753.187927246094	830.2168579101567	
52	0.51	152.1242370605469	879.7434082031255	811.3889770507817	216.1345367431642	925.0810546875005	991.9404907226567	305.6898803710939	923.4214477539067	999.375610351563	391.721618652344	888.4118041992192	829.902709960938	96.36422729492193	796.337524414063	887.7501831054692	145.5645599365235	440.6926269531252	877.3340454101567	257.8856201171876	435.8017272949221	854.9102172851567	146.8950195312501	377.1203002929689	894.7802124023442	191.1442413330079	365.0075988769532	828.2772827148442	210.4472198486329	61.68040847778323	883.9942016601567	294.0740966796876	78.52573394775393	855.0317382812505	262.9601135253907	22.04964828491212	920.875366210938	269.4925231933595	28.05615234375001	740.5877685546877	207.8469390869142	38.76523971557619	737.4119873046877	168.1593017578126	24.72483825683595	793.7446289062505	447.153747558594	797.1661987304692	930.411743164063	455.918640136719	451.0541687011721	911.1751098632817	340.4646606445314	419.627136230469	875.1691284179692	460.6331787109377	407.2949218750002	955.286010742188	422.3442077636721	359.4329528808595	900.912475585938	408.7996215820315	186.8193511962891	1175.309814453125	333.4043273925782	168.0122222900391	1123.88916015625	344.1290588378907	179.4219970703126	1224.199584960938	359.4185791015626	55.21143341064456	1091.51708984375	416.812438964844	63.48187255859378	1094.254638671875	448.1125183105471	85.15840148925784	1147.652465820313	243.8324127197267	1389.298461914063	958.3310546875005	248.4873046875001	1156.123779296875	1021.219787597657	248.8352355957032	1159.392578125	789.5399780273442	243.6171112060548	1322.87353515625	831.214233398438	152.0018615722657	1190.874877929688	1021.05029296875	156.3218383789063	1321.17236328125	1001.206115722657	48.70672225952151	1318.17138671875	926.319702148438	64.2809982299805	1329.947143554688	886.2670288085942	-10.19869709014893	1043.836303710938	918.909301757813	66.20046997070315	1009.657775878907	938.8300170898442	16.64624786376954	1005.318176269532	947.475463867188	35.23962402343751	835.569458007813	782.9795532226567	-27.97614097595216	819.8729858398442	830.829956054688	27.04820823669435	765.1776123046877	733.546081542969	-28.42833709716798	742.9034423828127	817.490600585938	362.4126281738282	1202.194458007813	1027.664916992188	333.8802795410157	1326.97314453125	1001.393188476563	436.765808105469	1328.0322265625	924.453979492188	424.4376220703127	1330.4404296875	875.2249145507817	513.550231933594	1032.35693359375	923.9455566406255	439.5805664062502	1012.394348144532	952.0244750976567	485.9404602050784	1003.419738769532	954.2440795898442	475.859558105469	849.2058105468755	786.2834472656255	539.9526977539065	833.5332031250005	836.0391235351567	490.411071777344	770.3297729492192	736.3470458984377	538.4119262695315	754.1975708007815	824.4860839843755	
